<svg id="Capa_2" data-name="Capa 2" xmlns="http://www.w3.org/2000/svg" viewBox="0 0 188 188"><defs><style>.cls-1{fill:#ffb01c;}</style></defs><title>cluego</title><path class="cls-1" d="M153.93,6H46.07A40.1,40.1,0,0,0,6,46.07V153.93A40.1,40.1,0,0,0,46.07,194H153.93A40.1,40.1,0,0,0,194,153.93V46.07A40.1,40.1,0,0,0,153.93,6ZM121.57,176.14a1.42,1.42,0,0,1-1.78-1.34V163.67a3.64,3.64,0,0,1,2.37-3.36,64.32,64.32,0,0,0,42.06-63.58c-1.59-32.8-28.9-59.76-61.75-61A64.33,64.33,0,0,0,90.11,163.57V153.48A54.43,54.43,0,0,1,53.2,127.8,2.07,2.07,0,0,1,55,124.74H68.24a1.89,1.89,0,0,1,1.53.74A39.54,39.54,0,0,0,139.53,102a2,2,0,0,1,2-2h10.73a2.07,2.07,0,0,1,2.08,2.13A54.44,54.44,0,0,1,105,154.22V179c-1.64.1-3.27.15-5,.15a71.44,71.44,0,0,1-9.89-.65,79.14,79.14,0,0,1,13.7-157.57c40.27,1.88,73.42,35.08,75.25,75.35A79.23,79.23,0,0,1,121.57,176.14ZM61.11,107.42a2,2,0,0,1-2,2.47H48.25a2.08,2.08,0,0,1-2.08-1.73,56.39,56.39,0,0,1-.59-8.16A54.43,54.43,0,0,1,74.77,51.76a2.07,2.07,0,0,1,3,1.83V66.31a2,2,0,0,1-.84,1.63A39.34,39.34,0,0,0,60.42,100,41,41,0,0,0,61.11,107.42ZM77.24,84.51A27.65,27.65,0,0,1,102,70.32,30.46,30.46,0,0,1,112,72a27,27,0,0,1,8.41,4.55,1.78,1.78,0,0,1,.74,1.39,1.82,1.82,0,0,1-.39,1.13l-5,7.13a1.55,1.55,0,0,1-1.28.84,2.3,2.3,0,0,1-1.24-.5,19.8,19.8,0,0,0-5-2.62,17.55,17.55,0,0,0-5.74-.89A14.33,14.33,0,0,0,95,85.06a14.69,14.69,0,0,0-5.44,5.69,16.18,16.18,0,0,0-2.08,8.16,15.67,15.67,0,0,0,7.62,13.66,14.36,14.36,0,0,0,7.47,2.07,16.27,16.27,0,0,0,5.74-.94,19.71,19.71,0,0,0,4.95-2.62,2.25,2.25,0,0,1,1.19-.44,1.67,1.67,0,0,1,1.33.84l5,7.12a2.2,2.2,0,0,1,.44,1.24,1.37,1.37,0,0,1-.54,1.09,28.18,28.18,0,0,1-8.56,4.75,31.27,31.27,0,0,1-10.24,1.63,27.78,27.78,0,0,1-14.5-3.81,28.08,28.08,0,0,1-10.14-10.39,28.62,28.62,0,0,1-3.61-14.2A29.43,29.43,0,0,1,77.24,84.51ZM100,60.42a34.59,34.59,0,0,0-5.1.35,2,2,0,0,1-2.32-2V48a2.07,2.07,0,0,1,1.78-2.07,53.28,53.28,0,0,1,5.64-.3,54.45,54.45,0,0,1,51.5,36.91,2.06,2.06,0,0,1-2,2.67H138a1.93,1.93,0,0,1-1.83-1.24A39.69,39.69,0,0,0,100,60.42Z" transform="translate(-6 -6)"/></svg>