<svg id="Capa_2" data-name="Capa 2" xmlns="http://www.w3.org/2000/svg" viewBox="0 0 150 163"><defs><style>.cls-1{fill:#ffb01c;}</style></defs><title>default-avatar</title><path class="cls-1" d="M100,37a40,40,0,1,0,40,40A40,40,0,0,0,100,37Zm5.43,68.87A1.26,1.26,0,0,1,104,107.3H95.6a1.27,1.27,0,0,1-1.43-1.43V98.31a1.26,1.26,0,0,1,1.43-1.42H104a1.26,1.26,0,0,1,1.42,1.42ZM116.58,73a16.37,16.37,0,0,1-3.13,4.69A35.73,35.73,0,0,1,109,81.47a9.69,9.69,0,0,0-3.28,3.9,11.84,11.84,0,0,0-.92,4.68v.86a.71.71,0,0,1-.37.62,1.94,1.94,0,0,1-1,.24h-7.7a1.33,1.33,0,0,1-1-.42,1.76,1.76,0,0,1-.37-1.2v-.53A18,18,0,0,1,96,81.39a21.3,21.3,0,0,1,5.4-6.55,24.29,24.29,0,0,0,4.06-4.18,7,7,0,0,0,1.39-4.12,5.92,5.92,0,0,0-1.6-4.39,6.06,6.06,0,0,0-4.39-1.56A6.42,6.42,0,0,0,96.46,62a6.52,6.52,0,0,0-2,4.26c-.09,1.06-.59,1.6-1.45,1.6H85.45a1.34,1.34,0,0,1-1.08-.42A1.73,1.73,0,0,1,84,66.21q.44-7.41,4.76-11.48t12.45-4.08a18,18,0,0,1,8.44,2,14.91,14.91,0,0,1,6,5.61,16,16,0,0,1,2.2,8.45A14.84,14.84,0,0,1,116.58,73Z" transform="translate(-25 -37)"/><path class="cls-1" d="M175,190.82V200H25v-9.18A65.82,65.82,0,0,1,90.82,125h18.36A65.82,65.82,0,0,1,175,190.82Z" transform="translate(-25 -37)"/></svg>